<?xml version="1.0"?>
<svg
  xmlns="http://www.w3.org/2000/svg"
  fill="#000"
  id="outline"
  viewBox="0 0 512 512"
  width="512"
  height="512"
>
  <path
    d="M408,32H344a8.00039,8.00039,0,0,0-8,8H288a8.00039,8.00039,0,0,0-8,8H240a8.02249,8.02249,0,0,0-1.31543.1084L200,54.55591v-12.134A26.42195,26.42195,0,0,0,158.92188,20.4375L139.5625,33.34375A7.99943,7.99943,0,0,0,136,40V80A31.78789,31.78789,0,0,0,139.575,94.669L122.76758,105.874A59.98784,59.98784,0,0,0,96,155.88867V168a47.72036,47.72036,0,0,0,8.67017,27.46753L120,249.12158V367.208L96.15527,486.43066A8.00012,8.00012,0,0,0,104,496h24a7.99912,7.99912,0,0,0,7.15527-4.42188L181.87085,398.147l18.28442,91.42237A8,8,0,0,0,208,496h24a8.00039,8.00039,0,0,0,8-8V352a8.01957,8.01957,0,0,0-.41016-2.53027L216,278.70215V249.2998l13.74927-41.2478A64.44221,64.44221,0,0,0,258.271,176h5.26123a40.07986,40.07986,0,0,0,32.54882-16.75l30.42872-42.59961A8.00671,8.00671,0,0,0,328,112v-8h8a8.00039,8.00039,0,0,0,8,8h64a8.00039,8.00039,0,0,0,8-8V40A8.00039,8.00039,0,0,0,408,32ZM268.59326,114.08008,271.00391,96H280a7.97913,7.97913,0,0,0,3.20361,6.3916Zm-44.24682-10.55762L197.35376,92.72559a31.73211,31.73211,0,0,0,1.28686-3.50782l29.8523,4.9751ZM152,80V64h32V80a16,16,0,0,1-32,0Zm80-1.44385-32-5.33349V70.77734l32-5.33349ZM245.19922,96h9.66308l-1.939,14.54126-12.35645-4.1189ZM280,80H248V64h32ZM152,44.28125,167.79785,33.749A10.42284,10.42284,0,0,1,184,42.42188V48H152ZM123.05566,480h-9.29687l22.08594-110.43066A7.9929,7.9929,0,0,0,136,368V307.47217L175.20605,369.082l-6.61523,19.84863ZM224,353.29785V480h-9.44141L191.84473,366.43066a7.995,7.995,0,0,0-1.09571-2.72558L136,277.66992V256h64v24a8.01957,8.01957,0,0,0,.41016,2.53027ZM202.23438,240h-68.2002l-7.83911-27.43774A47.72564,47.72564,0,0,0,144,216h54.9707a63.569,63.569,0,0,0,11.62012-1.0708Zm-3.26368-40H144a32.03667,32.03667,0,0,1-32-32V155.88867a44.02066,44.02066,0,0,1,19.64258-36.70215l18.73828-12.49243a31.90987,31.90987,0,0,0,36.5415-.90918l30.92139,12.36865L202.80078,152h-31.4873l-13.65625-13.65723-11.31446,11.31446,16,16A8.00235,8.00235,0,0,0,168,168h40a8.00131,8.00131,0,0,0,7.31055-4.751l18.72754-42.13647,16.73217,5.57739-4.22046,31.65381A48.14947,48.14947,0,0,1,198.9707,200Zm84.09082-50.05078A24.0455,24.0455,0,0,1,263.53223,160h-1.062l3.22559-24.189a7.993,7.993,0,0,0,3.30225-1.564l12.186-9.74878,11.69971,11.7ZM312,109.43652l-9.6875,13.56177-8.55713-8.55737L306.80664,104H312ZM296,88V56h40V88Zm104,8H352V48h48Z"
  />
</svg>
